<?xml version="1.0" encoding="utf-8"?>
<!-- Generator: Adobe Illustrator 24.0.3, SVG Export Plug-In . SVG Version: 6.00 Build 0)  -->
<svg version="1.1" id="Capa_1" xmlns="http://www.w3.org/2000/svg" xmlns:xlink="http://www.w3.org/1999/xlink" x="0px" y="0px"
	 viewBox="0 0 489.4 489.4" style="enable-background:new 0 0 489.4 489.4;" xml:space="preserve">
<style type="text/css">
	.st0{fill:#D5DBE0;}
</style>
<g>
	<polygon class="st0" points="244.7,198.3 146.3,296.6 168.9,319.2 228.7,259.4 228.7,452 260.7,452 260.7,259.4 320.5,319.2 
		343.1,296.6 	"/>
	<path class="st0" d="M459.2,218.5c-16.4-18-38.7-29.3-62.8-31.8l-2.6-0.3l-0.1-2.6c-1-39.3-17.2-76.1-45.4-103.6
		C320,52.6,282.6,37.4,243.2,37.4c-37.5,0-73.5,13.9-101.2,39c-23.9,21.6-39.9,49.8-46.4,81.5l-0.4,1.9l-1.9,0.4
		c-22.7,4.9-43,16.5-58.7,33.5c-19.3,20.8-30,48-30,76.6C4.6,332.4,55.1,383,117.2,383h16.9V351h-17c-44.4-0.1-80.6-36.3-80.6-80.7
		c0-41.8,32.6-77.1,74.2-80.4l13.2-1.1l1.3-13.2c6.3-60.6,57-106.3,118-106.3c65.4,0,118.6,53.2,118.6,118.6v30.2h24.5
		c36.7,0,66.5,29.8,66.5,66.5s-29.8,66.5-66.5,66.5h-30.2V383h30.1c54.3,0,98.4-44.1,98.4-98.4C484.7,260.2,475.7,236.7,459.2,218.5
		z"/>
</g>
</svg>
