<?xml version="1.0" encoding="utf-8"?>
<!-- Generator: Adobe Illustrator 24.0.3, SVG Export Plug-In . SVG Version: 6.00 Build 0)  -->
<svg version="1.1" id="Capa_1" xmlns="http://www.w3.org/2000/svg" xmlns:xlink="http://www.w3.org/1999/xlink" x="0px" y="0px"
	 viewBox="0 0 489.4 489.4" style="enable-background:new 0 0 489.4 489.4;" xml:space="preserve">
<style type="text/css">
	.st0{fill:#D5DBE0;}
</style>
<path class="st0" d="M357,189.3l66.2,66.2l66.2-66.2l-21.7-21.7l-28.9,28.8c-11.1-44.5-37-83.8-73.5-111.4
	c-88.1-66.6-213.5-49.2-280.1,38.8l24.5,18.6c21.5-28.4,51.4-49.3,85.5-59.7c89.4-27.3,184,23.1,211.3,112.5l-27.7-27.7L357,189.3z"
	/>
<path class="st0" d="M0,299.9l21.8,21.8l28.8-28.8C72.5,382.2,152.6,445,244.5,445c10.9,0,21.8-0.9,32.5-2.6
	c52.4-8.5,99.3-37.5,130.2-80.7l-25-18c-21.8,30.2-52.9,52.3-88.5,63.1c-89.5,27-184.1-23.6-211.1-113.2l28,28l21.8-21.8l-66.2-66.2
	L0,299.9z M65.1,278.4l1.1-1.2L67,278L65.1,278.4z"/>
</svg>
