<svg width="238" height="182" viewBox="0 0 238 182" fill="none" xmlns="http://www.w3.org/2000/svg">
<g clip-path="url(#clip0)">
<path d="M222.565 84.1744L195.613 88.3243L190.605 55.8882L217.549 51.7383L218.462 57.6429" stroke="#241814" stroke-width="0.5" stroke-miterlimit="10"/>
<path d="M231.506 55.6238L204.557 59.7769L209.567 92.2063L236.516 88.0532L231.506 55.6238Z" stroke="#241814" stroke-width="0.5" stroke-miterlimit="10"/>
<path d="M234.644 75.4883H221.783C219.929 75.4883 218.427 76.9886 218.427 78.8398V81.1648H194.471C192.336 81.1648 190.605 82.8932 190.605 85.0252V112.759C190.605 114.891 192.336 116.619 194.471 116.619H234.135C236.269 116.619 238 114.891 238 112.759V90.5789V85.0252V78.8398C238 76.9886 236.498 75.4883 234.644 75.4883Z" fill="#020935"/>
<path d="M208.957 99.3525V103.081H219.648V99.3525" stroke="#F2EEEB" stroke-width="0.5" stroke-miterlimit="10"/>
<path d="M214.298 95.1323V100.511" stroke="#F2EEEB" stroke-width="0.5" stroke-miterlimit="10"/>
<path d="M211.979 98.6504L214.298 100.51L216.767 98.6504" stroke="#F2EEEB" stroke-width="0.5" stroke-miterlimit="10"/>
<path d="M196.939 70.9345L206.058 69.5308" stroke="#241814" stroke-width="0.5" stroke-miterlimit="10"/>
<path d="M197.713 74.6988L206.647 73.3301" stroke="#241814" stroke-width="0.5" stroke-miterlimit="10"/>
<path d="M198.494 78.4712L207.235 77.1201" stroke="#241814" stroke-width="0.5" stroke-miterlimit="10"/>
<path d="M196.28 86.4818C196.289 86.4818 196.307 86.4906 196.316 86.4906C196.324 86.4906 196.324 86.4905 196.333 86.4993C196.421 86.5256 196.491 86.5871 196.5 86.7011C196.5 86.7099 196.5 86.7187 196.5 86.7187C196.5 86.7274 196.5 86.7362 196.5 86.7538C196.421 87.3416 196.333 87.9908 196.219 88.6489C196.333 88.412 196.447 88.1839 196.562 87.947C196.614 87.7803 196.764 87.7539 196.887 87.8154C197.01 87.8505 197.106 87.9733 197.036 88.1224C196.439 90.0877 196.526 92.3952 195.305 94.1412C195.235 94.2377 195.156 94.3342 195.077 94.4307C194.646 96.1415 193.338 97.3172 191.554 97.1768C191.493 97.2997 191.343 97.3698 191.212 97.2558C189.911 96.124 189.156 94.5535 189.472 92.7988C189.876 90.544 191.958 89.6315 193.092 87.8154C193.127 87.7452 193.179 87.7013 193.241 87.7013C193.399 87.6662 193.584 87.8241 193.548 88.0084C193.548 88.0172 193.548 88.0259 193.548 88.0347C193.373 88.798 193.127 89.535 192.775 90.2281C193.882 89.3683 194.831 88.4471 194.734 86.9643C194.699 86.7976 194.822 86.6923 194.963 86.6836C195.086 86.6573 195.226 86.7099 195.235 86.8766C195.34 87.3767 195.376 87.8768 195.349 88.3593C195.595 87.7978 195.824 87.2275 196.026 86.6572C196.034 86.6397 196.043 86.6309 196.043 86.6222C196.087 86.4993 196.184 86.4642 196.28 86.4818Z" fill="#EFCCBC"/>
<path d="M69.0492 89.7275C68.689 89.1309 67.9686 90.2452 67.4854 90.9822C67.2658 90.5874 66.809 89.8328 66.4664 89.4819C65.0784 88.0255 61.134 86.5603 61.0637 86.5778C60.8001 86.5076 60.6947 86.92 60.9583 87.0165C60.9934 87.0253 62.522 88.2009 63.216 88.8151C63.4707 89.0344 63.6904 89.2713 63.8836 89.5082C63.339 89.2538 62.6977 89.3591 62.3814 89.8943V89.903C61.6347 89.8504 61.2306 90.7628 61.3624 91.3594C61.1955 91.3945 61.0286 91.4647 60.8968 91.5963C60.5805 91.921 60.6332 92.4649 60.7826 92.851C61.257 94.5092 62.5659 95.7814 64.235 96.2113C64.2614 96.2288 64.2965 96.2376 64.3405 96.2288C65.6494 96.1323 66.9496 95.9217 68.074 95.1935C68.1443 95.1847 68.2146 95.1584 68.2409 95.0882C68.3376 95.0707 68.4166 95.0093 68.4079 94.8777C68.3024 93.7196 68.4606 92.6492 68.7768 91.5349C68.8998 91.1226 69.3215 90.1838 69.0492 89.7275Z" fill="#EFCCBC"/>
<path d="M147.085 155.065C147.612 154.424 148.113 153.714 148.552 152.889C151.478 147.37 157.917 119.04 157.513 111.021C157.118 102.993 158.154 93.895 137.958 92.1227C117.875 90.3593 106.675 94.5004 103.662 97.2378C100.227 100.361 99.0846 105.046 100.49 117.619C101.711 128.489 103.837 147.361 110.479 155.065H147.085V155.065Z" fill="#0C71F8"/>
<path d="M102.933 130.13C102.933 130.13 95.8343 154.925 89.3072 155.039C82.78 155.153 80.4959 155.039 80.4959 155.039C80.4959 155.039 66.6246 145.66 63.26 96.5186L69.3919 94.4392C69.3919 94.4392 82.2793 117.259 86.3027 132.578C86.3027 132.578 88.4902 100.309 109.96 94.2988L102.933 130.13Z" fill="#0C71F8"/>
<path d="M155.167 130.13C155.167 130.13 162.265 154.925 168.793 155.039C175.32 155.153 177.604 155.039 177.604 155.039C177.604 155.039 191.475 145.66 194.84 96.5186L188.708 94.4392C188.708 94.4392 175.812 117.259 171.797 132.578C171.797 132.578 169.61 100.309 148.139 94.2988L155.167 130.13Z" fill="#0C71F8"/>
<path d="M123.426 73.9286L122.893 83.7578L130.717 84.1812L131.25 74.352L123.426 73.9286Z" fill="#EFCCBC"/>
<path d="M123.427 73.9268C123.427 73.9268 120.441 80.4982 120.941 83.569C121.293 85.701 124.051 86.4379 126.054 85.2535C126.766 84.8324 127.381 84.1656 127.758 83.2268L123.427 73.9268Z" fill="#EFCCBC"/>
<path d="M120.792 91.9301C120.792 91.9301 118.859 95.0535 121.425 97.1943C123.999 99.3351 130.403 98.2208 132.002 91.8073C132.01 91.8073 122.734 90.4035 120.792 91.9301Z" fill="#EFCCBC"/>
<path d="M120.792 91.9301C120.792 91.9301 122.892 87.7977 122.769 80.2437L130.543 79.9717C130.543 79.9717 130.42 86.1746 132.011 91.8073C132.011 91.8073 123.805 93.4129 120.792 91.9301Z" fill="#EFCCBC"/>
<path d="M136.333 152.994H85.6263L83.1489 117.259H133.855L136.333 152.994Z" fill="#D7D4D4"/>
<path d="M146.339 155.065H85.6262V152.994H136.333L146.339 153.678V155.065Z" fill="#D7D4D4"/>
<path d="M136.333 152.994H85.6262V153.678H136.333V152.994Z" fill="#BDB8B8"/>
<path d="M136.333 153.679L146.339 154.372V155.065L136.333 155.091V153.679Z" fill="#BDB8B8"/>
<path d="M111.085 133.833C111.111 135.649 109.741 137.149 108.028 137.176C106.315 137.202 104.909 135.745 104.883 133.921C104.856 132.104 106.227 130.604 107.94 130.578C109.653 130.56 111.058 132.017 111.085 133.833Z" fill="#F2EEEB"/>
<path d="M133.855 117.259L134.426 117.417L136.983 153.038L136.333 152.994L133.855 117.259Z" fill="#BDB8B8"/>
<path d="M51.172 96.1587L12.4482 99.7647V53.168L51.172 49.5532V96.1587Z" fill="white"/>
<path d="M91.0729 56.2302L57.989 57.7744V17.9685L91.0729 16.4243V56.2302Z" fill="white"/>
<path d="M47.3593 141.097L3.62817 142.106V93.4216L47.3593 92.4038V141.097Z" fill="white"/>
<path d="M47.9479 110.285H33.9448C31.9243 110.285 30.2903 111.917 30.2903 113.934V116.461H4.20796C1.87996 116.461 0 118.339 0 120.664V150.854C0 153.179 1.87996 155.056 4.20796 155.056H47.3944C49.7224 155.056 51.6024 153.179 51.6024 150.854V126.709V120.664V113.934C51.6024 111.917 49.9684 110.285 47.9479 110.285Z" fill="#FF9D46"/>
<path d="M19.1863 135.623V140.027H31.8102V135.623" stroke="#241814" stroke-width="0.5" stroke-miterlimit="10"/>
<path d="M25.4939 138.149V131.797" stroke="#241814" stroke-width="0.5" stroke-miterlimit="10"/>
<path d="M22.7441 134L25.4938 131.797L28.4016 134" stroke="#241814" stroke-width="0.5" stroke-miterlimit="10"/>
<path d="M51.6023 155.065H220.536" stroke="#241814" stroke-width="0.5" stroke-miterlimit="10"/>
<path d="M20.0821 111.205L7.48462 111.688V99.1153L20.0821 98.624V111.205Z" fill="#EBEDF2"/>
<path d="M43.0811 99.6244L22.7441 100.493V98.5014L43.0811 97.624V99.6244Z" fill="#EBEDF2"/>
<path d="M43.0811 105.713L22.7441 106.591V104.599L43.0811 103.722V105.713Z" fill="#EBEDF2"/>
<path d="M45.6989 57.6776L17.9124 60.6431V58.6515L45.6989 55.686V57.6776Z" fill="#EBEDF2"/>
<path d="M86.7418 35.8315L62.3198 37.1387V35.1383L86.7418 33.8398V35.8315Z" fill="#EBEDF2"/>
<path d="M86.7418 40.8852L62.3198 42.1924V40.1921L86.7418 38.8936V40.8852Z" fill="#EBEDF2"/>
<path d="M86.7418 45.9389L62.3198 47.2374V45.2458L86.7418 43.9473V45.9389Z" fill="#EBEDF2"/>
<path d="M86.7418 50.9921L62.3198 52.2906V50.299L86.7418 48.9917V50.9921Z" fill="#EBEDF2"/>
<path d="M45.6989 62.6435L17.9124 65.6089V63.6085L45.6989 60.6431V62.6435Z" fill="#EBEDF2"/>
<path d="M45.6989 67.601L17.9124 70.5665V68.5749L45.6989 65.6094V67.601Z" fill="#EBEDF2"/>
<path d="M45.6989 72.5668L17.9124 75.5323V73.5319L45.6989 70.5664V72.5668Z" fill="#EBEDF2"/>
<path d="M122.892 0.220215H107.343V37.6397H122.892V0.220215Z" fill="white"/>
<path d="M138.432 0.220215H107.343V37.6397H138.432V0.220215Z" stroke="#241814" stroke-width="0.5" stroke-miterlimit="10"/>
<path d="M124.315 75.8477C124.315 75.8477 123.471 76.6988 122.338 76.6198L122.198 77.0234C122.198 77.0234 120.757 76.339 120.801 74.1456C120.845 71.9435 123.375 71.496 124.64 72.3909C124.64 72.3909 127.346 71.1714 129.946 71.6978C132.555 72.2242 132.88 74.8651 132.634 76.0758C132.388 77.2866 130.947 80.0152 130.939 80.2608C130.939 80.2608 128.813 77.4094 128.646 76.2688C128.637 76.2513 125.43 77.1901 124.315 75.8477Z" fill="#020935"/>
<path d="M121.583 84.876C121.583 84.876 120.116 90.3946 117.858 92.3862L120.731 92.044C120.731 92.044 122.022 89.8418 122.488 85.4989C122.479 85.5077 121.987 85.3234 121.583 84.876Z" fill="#020935"/>
<path d="M132.625 76.0673C132.625 76.0673 131.466 88.0521 136.983 92.0353C136.983 92.0353 132.968 91.8686 132.002 91.816C132.002 91.816 128.321 92.5705 129.48 86.271C129.48 86.271 127.75 80.4103 130.456 79.5943C130.456 79.5855 129.99 75.7427 132.625 76.0673Z" fill="#020935"/>
<path d="M129.744 77.0326C129.744 77.0326 130.789 76.1202 131.606 77.0589C132.283 77.8398 131.747 79.8226 129.436 79.691C129.428 79.691 128.909 78.4101 129.744 77.0326Z" fill="#EFCCBC"/>
<path d="M12.4482 92.0355L49.8103 89.7017V96.2819L47.3594 96.51V92.4039L12.4482 93.2111V92.0355Z" fill="#F2EEEB"/>
<path d="M35.2097 82.4897V84.4813L45.6989 83.3583V81.3667L35.2097 82.4897Z" fill="#EBEDF2"/>
<path d="M73.5557 22.0742L62.3198 22.6708V32.4271L73.5557 31.8305V22.0742Z" fill="#EBEDF2"/>
<path d="M122.892 18.4771H110.294V20.4774H122.892V18.4771Z" fill="#EBEDF2"/>
<path d="M122.892 23.6714H110.294V25.6718H122.892V23.6714Z" fill="#EBEDF2"/>
<path d="M115.495 6.20295C115.495 7.63305 114.335 8.79994 112.895 8.79994C111.463 8.79994 110.294 7.64182 110.294 6.20295C110.294 4.77285 111.454 3.60596 112.895 3.60596C114.326 3.60596 115.495 4.76407 115.495 6.20295Z" fill="#EBEDF2"/>
<path d="M115.495 13.2044C115.495 14.6345 114.335 15.8014 112.895 15.8014C111.463 15.8014 110.294 14.6433 110.294 13.2044C110.294 11.7743 111.454 10.6074 112.895 10.6074C114.326 10.6074 115.495 11.7655 115.495 13.2044Z" fill="#EBEDF2"/>
<path d="M155.94 53.3172L187.03 51.7818V14.3623L155.94 15.8977V53.3172Z" stroke="#241814" stroke-width="0.5" stroke-miterlimit="10"/>
<path d="M158.918 29.8128L183.709 28.5933" stroke="#241814" stroke-width="0.5" stroke-miterlimit="10"/>
<path d="M183.709 24.3904L158.918 25.6187V20.4861L183.709 19.2578V24.3904Z" stroke="#241814" stroke-width="0.5" stroke-miterlimit="10"/>
<path d="M158.918 34.0066L183.709 32.7871" stroke="#241814" stroke-width="0.5" stroke-miterlimit="10"/>
<path d="M158.918 38.2093L183.709 36.981" stroke="#241814" stroke-width="0.5" stroke-miterlimit="10"/>
<path d="M158.918 42.4026L183.709 41.1831" stroke="#241814" stroke-width="0.5" stroke-miterlimit="10"/>
<path d="M158.918 46.5965L183.709 45.377" stroke="#241814" stroke-width="0.5" stroke-miterlimit="10"/>
<path d="M212.699 62.9418L223.804 61.2397" stroke="#241814" stroke-width="0.5" stroke-miterlimit="10"/>
<path d="M195.385 63.3983L204.89 61.9331" stroke="#241814" stroke-width="0.5" stroke-miterlimit="10"/>
<path d="M213.288 66.7411L224.577 65.0039" stroke="#241814" stroke-width="0.5" stroke-miterlimit="10"/>
<path d="M196.158 67.162L205.478 65.7319" stroke="#241814" stroke-width="0.5" stroke-miterlimit="10"/>
<path d="M122.892 19.4688H134.909" stroke="#241814" stroke-width="0.5" stroke-miterlimit="10"/>
<path d="M122.892 24.6714H134.909" stroke="#241814" stroke-width="0.5" stroke-miterlimit="10"/>
<path d="M89.8782 105.029C89.887 95.7904 89.9046 85.8411 89.9046 85.6832C89.9046 79.4364 84.5282 74.3652 77.8956 74.3652C73.7492 74.3652 70.0947 76.3481 67.9336 79.3574" stroke="#241814" stroke-width="0.5" stroke-miterlimit="10"/>
<path d="M67.7754 77.5322L67.9335 79.322L69.7696 79.208" stroke="#241814" stroke-width="0.5" stroke-miterlimit="10"/>
<path d="M35.9213 38.7619L36.1146 36.858L34.2961 36.6211" stroke="#241814" stroke-width="0.5" stroke-miterlimit="10"/>
<path d="M203.344 38.4371L205.241 38.6301L205.487 36.814" stroke="#241814" stroke-width="0.5" stroke-miterlimit="10"/>
<path d="M89.7112 5.99236L91.0816 4.66754L89.8429 3.31641" stroke="#241814" stroke-width="0.5" stroke-miterlimit="10"/>
<path d="M150.757 5.99236L152.128 4.66754L150.889 3.31641" stroke="#241814" stroke-width="0.5" stroke-miterlimit="10"/>
<path d="M174.538 60.8716H146.813C144.88 60.8716 143.317 62.4333 143.317 64.3635V72.2773V80.9983L148.21 75.7692H174.547C176.48 75.7692 178.043 74.2075 178.043 72.2773V64.3635C178.035 62.4333 176.471 60.8716 174.538 60.8716Z" fill="#FF9D46"/>
<path d="M99.2604 67.3903C99.6195 67.3903 99.9105 67.0996 99.9105 66.741C99.9105 66.3825 99.6195 66.0918 99.2604 66.0918C98.9014 66.0918 98.6104 66.3825 98.6104 66.741C98.6104 67.0996 98.9014 67.3903 99.2604 67.3903Z" stroke="#241814" stroke-width="0.5" stroke-miterlimit="10"/>
<path d="M104.61 66.741C104.61 67.1008 104.321 67.3903 103.96 67.3903C103.6 67.3903 103.31 67.1008 103.31 66.741C103.31 66.3813 103.6 66.0918 103.96 66.0918C104.321 66.1006 104.61 66.3901 104.61 66.741Z" stroke="#241814" stroke-width="0.5" stroke-miterlimit="10"/>
<path d="M109.31 66.741C109.31 67.1008 109.021 67.3903 108.66 67.3903C108.3 67.3903 108.01 67.1008 108.01 66.741C108.01 66.3813 108.3 66.0918 108.66 66.0918C109.021 66.1006 109.31 66.3901 109.31 66.741Z" stroke="#241814" stroke-width="0.5" stroke-miterlimit="10"/>
<path d="M149.721 66.7407H173.387" stroke="#241814" stroke-width="0.5" stroke-miterlimit="10"/>
<path d="M149.721 70.1978H173.387" stroke="#241814" stroke-width="0.5" stroke-miterlimit="10"/>
<path d="M213.745 155.091H58.1296V157.293H213.745V155.091Z" stroke="#241814" stroke-width="0.5" stroke-miterlimit="10"/>
<path d="M155.018 129.393C155.018 129.393 154.456 126.516 154.245 125.445C154.245 125.445 152.242 131.306 153.779 135.123L155.018 129.393Z" fill="#020935"/>
<path d="M171.788 132.57C171.788 132.57 172.017 134.105 171.217 134.351C171.217 134.351 171.525 130.087 171.419 129.376C171.419 129.376 171.718 131.157 171.788 132.57Z" fill="#020935"/>
<path d="M124.104 101.441C124.39 101.441 124.622 101.209 124.622 100.923C124.622 100.637 124.39 100.405 124.104 100.405C123.818 100.405 123.586 100.637 123.586 100.923C123.586 101.209 123.818 101.441 124.104 101.441Z" fill="#F2EEEB"/>
<path d="M124.104 104.38C124.39 104.38 124.622 104.148 124.622 103.862C124.622 103.576 124.39 103.344 124.104 103.344C123.818 103.344 123.586 103.576 123.586 103.862C123.586 104.148 123.818 104.38 124.104 104.38Z" fill="#F2EEEB"/>
<path d="M25.3884 29.6987C25.3884 29.6987 35.4823 22.8377 37.1162 14.2484C38.7502 5.65899 28.7179 17.7929 37.1162 21.9604C41.0079 23.8906 43.9509 19.0388 43.9509 19.0388" stroke="#241814" stroke-width="0.5" stroke-miterlimit="10"/>
<path d="M129.639 77.1726L129.586 76.769C128.778 76.8831 127.715 77.4797 127.188 77.8043V77.3218H124.209V77.971H123.638V77.3218H120.66V79.7872H123.638V78.3746H124.209V79.7872H127.188V78.2781C127.53 78.0675 128.786 77.2955 129.639 77.1726ZM123.234 79.3836H121.064V77.7254H123.234V79.3836ZM126.783 79.3836H124.614V77.7254H126.783V79.3836Z" fill="#020935"/>
<path d="M122.479 85.5077C122.479 85.5077 124.71 86.3061 126.564 84.876C126.564 84.876 127.082 90.4823 121.495 90.2103C121.495 90.2191 122.329 86.85 122.479 85.5077Z" fill="#CEA697"/>
<path d="M190.605 55.9144C190.605 55.9144 198.222 48.8078 196.904 45.3247C195.586 41.8416 192.037 51.0539 199.004 51.3434C205.979 51.6329 205.882 42.4733 203.66 41.28C201.437 40.0868 199.751 50.3169 207.262 49.5887" stroke="#241814" stroke-width="0.5" stroke-miterlimit="10"/>
</g>
<defs>
<clipPath id="clip0">
<rect width="238" height="182" fill="white"/>
</clipPath>
</defs>
</svg>
